<svg id="Group_177488" data-name="Group 177488" xmlns="http://www.w3.org/2000/svg" xmlns:xlink="http://www.w3.org/1999/xlink" width="217.682" height="53.294" viewBox="0 0 217.682 53.294">
  <defs>
    <clipPath id="clip-path">
      <rect id="Rectangle_163611" data-name="Rectangle 163611" width="217.682" height="53.294" fill="none"/>
    </clipPath>
  </defs>
  <g id="Group_177488-2" data-name="Group 177488" clip-path="url(#clip-path)">
    <path id="Path_104211" data-name="Path 104211" d="M0,27.937a.727.727,0,0,0,.061-.447A25.523,25.523,0,0,1,.259,24c.021-.22.13-.248.311-.191a20.092,20.092,0,0,0,3,.675c.905.138,1.814.239,2.727.311a32.8,32.8,0,0,0,3.367.121c1.493-.036,2.98-.149,4.465-.314a46.42,46.42,0,0,0,6.24-1.127,45.927,45.927,0,0,0,7.593-2.662,49.4,49.4,0,0,0,9.8-5.892,19.8,19.8,0,0,0,2.822-2.482,36.581,36.581,0,0,0,3.532-4.663,20.9,20.9,0,0,0,2.726-6.2A14.393,14.393,0,0,0,47.11,0a3.743,3.743,0,0,1,.165,1.275,27.452,27.452,0,0,1,0,2.947A23.819,23.819,0,0,1,46.235,9.9a29.413,29.413,0,0,1-5.363,9.749,34.137,34.137,0,0,1-3.161,3.4,43.678,43.678,0,0,1-7.65,5.7,48.732,48.732,0,0,1-9.744,4.4,50.931,50.931,0,0,1-8.917,2.08c-1.534.209-3.071.371-4.617.455-1.089.059-2.177.136-3.268.121-.578-.008-1.153-.088-1.732-.069a.5.5,0,0,1-.517-.413,23.819,23.819,0,0,1-1-4.4c-.085-.669-.136-1.342-.206-2.013A.976.976,0,0,0,0,28.723v-.786" fill="#b7bdc9"/>
    <path id="Path_104212" data-name="Path 104212" d="M87.812,98.508c-.47-.095-.958-.018-1.444-.153.053-.181.22-.227.352-.3A57.21,57.21,0,0,0,93.072,94.2a52.817,52.817,0,0,0,6.457-5.336,44.182,44.182,0,0,0,7.636-9.65,33.416,33.416,0,0,0,4.114-11.075,29.8,29.8,0,0,0,.393-5.57c0-.115-.04-.238.044-.348.136,0,.143.123.179.2a25.36,25.36,0,0,1,2.272,10.364A25.579,25.579,0,0,1,105.775,91.8,25.156,25.156,0,0,1,93.5,98a21.689,21.689,0,0,1-3.83.461,1.321,1.321,0,0,0-.222.043Z" transform="translate(-62.76 -45.213)" fill="#fff"/>
    <path id="Path_104213" data-name="Path 104213" d="M248.266,37.277V14.738c0-.576,0-.576.565-.576h9.05a9.531,9.531,0,0,1,8.689,5.232,9.429,9.429,0,0,1,1.211,4.8c0,8.856.02,17.712-.012,26.569a9.521,9.521,0,0,1-2.592,6.479,9.3,9.3,0,0,1-4.865,2.984,8.631,8.631,0,0,1-1.977.236q-4.738-.011-9.476,0c-.592,0-.593,0-.593-.579v-22.6m6.595.025q0,8.074-.007,16.149c0,.323.076.441.418.432.929-.022,1.858-.006,2.787-.009a2.537,2.537,0,0,0,.586-.046,3.47,3.47,0,0,0,2.534-3.251q.018-13.1.015-26.205a4.187,4.187,0,0,0-.144-1.132,3.237,3.237,0,0,0-3.268-2.491h-2.459c-.463,0-.463,0-.463.469q0,8.042,0,16.083" transform="translate(-180.404 -10.29)" fill="#fff"/>
    <path id="Path_104214" data-name="Path 104214" d="M644.357,34.924c0-4.673-.062-9.348.019-14.02a9.929,9.929,0,0,1,5.745-9.181,9.257,9.257,0,0,1,4.908-.838c4.207.254,8.107,3.967,8.744,8.491a14,14,0,0,1,.137,1.922q.015,13.611.008,27.221a10.38,10.38,0,0,1-2.316,6.86,9.506,9.506,0,0,1-14.536.47,9.986,9.986,0,0,1-2.566-5.279,10.934,10.934,0,0,1-.145-1.724q-.005-6.961,0-13.922Zm6.586-.025q0,6.9,0,13.791a4.081,4.081,0,0,0,.61,2.208,2.933,2.933,0,0,0,4.932.3,4.049,4.049,0,0,0,.835-2.63q.013-13.66,0-27.32a4.13,4.13,0,0,0-.731-2.47,2.893,2.893,0,0,0-4.494-.5,3.779,3.779,0,0,0-1.154,2.865q-.009,6.879,0,13.758" transform="translate(-468.209 -7.889)" fill="#fff"/>
    <path id="Path_104215" data-name="Path 104215" d="M565.145,43.641c0-1.813.011-3.625,0-5.438a3.446,3.446,0,0,0-2.566-3.219,8.446,8.446,0,0,0-1.27-.1,8.8,8.8,0,0,1-5.546-2.3,10.015,10.015,0,0,1-3.365-5.952,7.916,7.916,0,0,1-.144-1.2c-.023-1.767-.074-3.535.026-5.3a8.969,8.969,0,0,1,.817-3.383,9.555,9.555,0,0,1,7.009-5.754,9.226,9.226,0,0,1,9.385,3.459,9.823,9.823,0,0,1,2.254,6.445c0,1.147-.009,2.293.005,3.439,0,.3-.093.395-.393.393q-2.9-.016-5.8,0c-.3,0-.4-.095-.4-.394.008-1.234.051-2.471-.02-3.7a3.36,3.36,0,0,0-2-3.01,2.9,2.9,0,0,0-3.677,1.207A3.892,3.892,0,0,0,558.821,21c0,1.267-.009,2.533,0,3.8a3.706,3.706,0,0,0,.7,2.179,2.98,2.98,0,0,0,2.514,1.373,9.2,9.2,0,0,1,7.4,3.576,9.717,9.717,0,0,1,2.25,5.384c.035.349.053.7.053,1.044,0,3.614.026,7.229-.006,10.843a10.014,10.014,0,0,1-6.68,9.257,9.469,9.469,0,0,1-10.955-3.68,9.818,9.818,0,0,1-1.82-5.043c-.115-1.472-.021-2.945-.057-4.418-.005-.218.074-.317.3-.316q3,.007,6,0c.268,0,.3.144.3.355,0,1.157-.018,2.315,0,3.472a3.677,3.677,0,0,0,1.371,2.892,2.893,2.893,0,0,0,4.267-.72,3.558,3.558,0,0,0,.683-2.08q0-1.327,0-2.653,0-1.31,0-2.621Z" transform="translate(-401.272 -7.841)" fill="#fff"/>
    <path id="Path_104216" data-name="Path 104216" d="M340.392,37.3q0-11.268,0-22.535c0-.12,0-.24,0-.36a.209.209,0,0,1,.24-.24c.077,0,.153,0,.229,0H353c.482,0,.483,0,.483.49q0,2.8,0,5.6c0,.5,0,.5-.513.5-1.858,0-3.716.006-5.573-.006-.309,0-.415.08-.413.4q.021,2.768,0,5.536c0,.327.113.4.417.4,2.94-.01,5.879-.006,8.819-.005.477,0,.478,0,.478.463q0,2.834,0,5.667c0,.456,0,.457-.448.458h-8.819c-.438,0-.44,0-.44.426q0,9.679,0,19.358c0,.429,0,.431.437.431h8.754c.514,0,.515,0,.515.527q0,2.8,0,5.6c0,.454,0,.456-.448.456H340.836c-.444,0-.446,0-.446-.461q0-11.35,0-22.7Z" transform="translate(-247.346 -10.291)" fill="#fff"/>
    <path id="Path_104217" data-name="Path 104217" d="M430.009,49.5c.542-.944,1.087-1.8,1.545-2.7q4.454-8.776,8.872-17.571c1.5-2.985,2.93-6,4.33-9.036a7.36,7.36,0,0,1,1.9-2.679,4.167,4.167,0,0,1,2.618-.975,9.27,9.27,0,0,1,2.779.372c.434.12.435.118.238.513q-2.819,5.64-5.638,11.28-6.266,12.556-12.528,25.113-1.878,3.766-3.749,7.536c-.044.088-.089.175-.134.263-.091.177-.183.169-.267,0-.192-.392-.379-.787-.574-1.177q-4.236-8.482-8.474-16.964-2.691-5.39-5.376-10.783c-.187-.374-.185-.379.211-.466a13.957,13.957,0,0,1,2.263-.338,4.582,4.582,0,0,1,4.672,2.717c.473.937.815,1.93,1.241,2.887,1.19,2.675,2.572,5.254,3.923,7.848.66,1.268,1.312,2.541,1.968,3.811l.185.356" transform="translate(-301.871 -12.012)" fill="#fff"/>
    <path id="Path_104218" data-name="Path 104218" d="M736.538,37.269V14.8c0-.109,0-.218,0-.327-.009-.213.071-.318.3-.318q3,.007,6,0c.215,0,.3.092.283.3-.007.12,0,.24,0,.36q0,19.242,0,38.485c0,.624-.066.573.589.573h8.655c.518,0,.519,0,.519.531q0,2.817,0,5.633c0,.416-.007.42-.457.42H737.022c-.486,0-.488,0-.488-.489q0-11.349,0-22.7Z" transform="translate(-535.206 -10.286)" fill="#fff"/>
    <path id="Path_104219" data-name="Path 104219" d="M28.284,7.232A25.662,25.662,0,0,1,40.8,10.5q1.135.622,2.216,1.335c.2.133.228.24.09.444a31.326,31.326,0,0,1-3.257,4.055.33.33,0,0,1-.5.051,20.058,20.058,0,0,0-6.206-2.725,19.363,19.363,0,0,0-5.912-.55,19.908,19.908,0,0,0-17.6,13.332c-.178.508-.186.516-.733.422-1.655-.284-3.308-.575-4.964-.853-.232-.039-.3-.112-.217-.344A28.122,28.122,0,0,1,9.918,15.078a25.731,25.731,0,0,1,13.128-7.2,26.176,26.176,0,0,1,5.238-.643" transform="translate(-2.674 -5.255)" fill="#fff"/>
    <path id="Path_104220" data-name="Path 104220" d="M12.56,87.162a59.855,59.855,0,0,0,6.455-.445,55.928,55.928,0,0,0,14.367-3.764,50.377,50.377,0,0,0,11.5-6.673,42.456,42.456,0,0,0,3.705-3.217,36.944,36.944,0,0,0,5.674-7.04c.069-.112.133-.341.269-.276.192.093,0,.272-.044.391a36.378,36.378,0,0,1-3.714,7.526,29.074,29.074,0,0,1-2.105,2.586c-.9,1.042-1.833,2.05-2.817,3.011A52.825,52.825,0,0,1,33.4,88.384a50.7,50.7,0,0,1-12.691,4.661c-1.449.318-2.911.557-4.383.733a.621.621,0,0,1-.53-.2,25.546,25.546,0,0,1-4.137-5.341c-.141-.246-.267-.5-.408-.746s-.093-.336.192-.328c.371.01.743,0,1.115,0" transform="translate(-8.124 -47.768)" fill="#8691a4"/>
    <path id="Path_104221" data-name="Path 104221" d="M472.77,31.2a8.776,8.776,0,0,1,2.508.392c.263.072.325.173.2.435q-1.7,3.449-3.389,6.907-2.835,5.793-5.668,11.587c-.68,1.392-1.352,2.788-2.031,4.181-.159.325-.157.315-.4.042a12.651,12.651,0,0,1-1.965-2.762,5.2,5.2,0,0,1,0-4.84c.506-1.029,1.143-1.986,1.7-2.985,1.211-2.164,2.313-4.381,3.332-6.64.539-1.193.955-2.439,1.556-3.605a5.573,5.573,0,0,1,1.389-1.8,4.006,4.006,0,0,1,2.771-.908" transform="translate(-335.294 -22.672)" fill="#8691a4"/>
    <path id="Path_104222" data-name="Path 104222" d="M451.526,48.706c1.028.081,2.037.163,3.047.239.306.022.324.139.195.394q-1.956,3.855-3.9,7.717c-.56,1.111-1.112,2.226-1.671,3.338-.037.073-.056.186-.163.182-.086,0-.107-.1-.139-.167a16.3,16.3,0,0,0-1.278-2.167,9.816,9.816,0,0,1-1.019-1.825,3.807,3.807,0,0,1,.149-3.107,25.91,25.91,0,0,1,1.642-3.053,2.888,2.888,0,0,1,2.566-1.481,4.15,4.15,0,0,0,.566-.069" transform="translate(-324.335 -35.392)" fill="#b7bdc9"/>
  </g>
</svg>
